STARTFONT 2.1
FONT -gbdfed-Unknown-Medium-R-Normal--16-120-96-96-P-100-FontSpecific-0
SIZE 12 96 96
FONTBOUNDINGBOX 10 16 0 -4
STARTPROPERTIES 9
POINT_SIZE 120
PIXEL_SIZE 16
RESOLUTION_X 96
RESOLUTION_Y 96
FONT_ASCENT 12
FONT_DESCENT 4
AVERAGE_WIDTH 100
SPACING "P"
_GBDFED_INFO "Edited with gbdfed 1.5."
ENDPROPERTIES
CHARS 10
STARTCHAR char80
ENCODING 80
SWIDTH 250 0
DWIDTH 4 0
BBX 4 2 0 1
BITMAP
F0
F0
ENDCHAR
STARTCHAR tlplayer
ENCODING 81
SWIDTH 250 0
DWIDTH 4 0
BBX 4 3 0 1
BITMAP
80
F0
F0
ENDCHAR
STARTCHAR trp
ENCODING 82
SWIDTH 250 0
DWIDTH 4 0
BBX 4 3 0 1
BITMAP
10
F0
F0
ENDCHAR
STARTCHAR char83
ENCODING 83
SWIDTH 250 0
DWIDTH 4 0
BBX 4 3 0 0
BITMAP
F0
F0
10
ENDCHAR
STARTCHAR char84
ENCODING 84
SWIDTH 250 0
DWIDTH 4 0
BBX 4 3 0 0
BITMAP
F0
F0
80
ENDCHAR
STARTCHAR char85
ENCODING 85
SWIDTH 187 0
DWIDTH 3 0
BBX 3 4 0 0
BITMAP
60
60
60
E0
ENDCHAR
STARTCHAR char86
ENCODING 86
SWIDTH 187 0
DWIDTH 3 0
BBX 3 4 0 0
BITMAP
E0
60
60
60
ENDCHAR
STARTCHAR char87
ENCODING 87
SWIDTH 250 0
DWIDTH 4 0
BBX 4 4 0 0
BITMAP
70
60
60
60
ENDCHAR
STARTCHAR char88
ENCODING 88
SWIDTH 250 0
DWIDTH 4 0
BBX 4 4 0 0
BITMAP
60
60
60
70
ENDCHAR
STARTCHAR char119
ENCODING 119
SWIDTH 250 0
DWIDTH 4 0
BBX 4 4 0 0
BITMAP
F0
F0
F0
F0
ENDCHAR
ENDFONT
